<?xml version="1.0" encoding="UTF-8"?>
<svg clip-rule="evenodd" fill-rule="evenodd" image-rendering="optimizeQuality" shape-rendering="geometricPrecision" text-rendering="geometricPrecision" version="1.1" viewBox="0 0 1024 1024" xmlns="http://www.w3.org/2000/svg" xmlns:xlink="http://www.w3.org/1999/xlink">
  <defs>
    <linearGradient id="a" x1="186.83" x2="820.01" y1="511.84" y2="511.84" gradientUnits="userSpaceOnUse">
      <stop stop-color="#353e42" offset="0"/>
      <stop stop-color="#353e42" stop-opacity=".9" offset="1"/>
    </linearGradient>
  </defs>
  <path d="m300.5 192.5c-32.642 31.97-66.309 62.97-101 93-7.11-7.553-11.61-16.553-13.5-27-6.812-37.21 6.688-64.043 40.5-80.5 27.526-9.449 52.192-4.616 74 14.5z" fill="#7d7e80"/>
  <path d="m300.5 192.5c22.132 22.555 27.632 48.888 16.5 79-12.734 26.308-33.901 39.974-63.5 41-22.434-0.249-40.434-9.249-54-27 7.5975-28.067 19.869-47.762 36.2-62.771 17.368-15.962 36.92-24.809 64.8-30.229z" fill="#353e42"/>
  <path d="m324.5 564.5c10.705-40.416 29.539-76.416 56.5-108 63.327-72.083 143.16-112.58 239.5-121.5 29.152-9.602 64.682 3.3176 89 5.5864-3.563-7.294-8.23-14.88-14-20.586-21.951-17.973-44.618-34.973-68-51-2.9868-5.6906-13.079-8.3047-15.761-12.097-74.758-30.295-148.66-31.864-223.24-0.90258-12.344 5.562-24.01 12.062-35 19.5-6.898 3.585-13.231 7.251-19 11 3.709-7.886 8.2523-15.562 10.5-24 1.9851-7.452 1.7412-16.031 2.5-23 87.903-49.595 178.9-55.428 273-17.5 34.745 15.4 75.178 36.269 96.697 69.661 6.2323 9.671 8.1752 22.416 6.8029 33.839-2.7213 22.653-16.119 42.902-29 62-25.748 38.415-57.581 70.915-95.5 97.5-73.205 52.312-155.04 79.479-245.5 81.5-10.047 0.189-19.88-0.478-29.5-2z" fill="#353e42"/>
  <path d="m719.52 203.66c-21.412-1.1023-42.42 3.6766-63.02 14.336 15.706 6.3453 37.43 12.986 55 24 11.294 7.7349 23.323 15.843 30.5 27.5 8.2029 13.322 12.403 29.63 12.371 45.275-0.059 28.618-8.4583 58.059-22.971 82.725-32.89 55.9-85.633 99.13-138.6 136.56-41.799 29.543-88.603 54.1-138.1 67.14-40.114 10.568-81.293 14.753-124.2 7.7959-72.237-15.24-106.4-59.74-102.5-133.5 2.972-21.243 10.303-41.108 17.5-61 5.2046-14.385 11.277-28.514 18.5-42 6.7232-12.553 15.832-23.661 23-36 1.392-2.441 1.559-4.774 0.5-7-13.06 6.628-27.06 9.628-42 9-16.324 26.364-34.352 51.536-44.244 80.52-10.037 29.41-14.407 61.028-14.424 92.104-0.025 45.539 12.897 84.08 29.715 122.63 8.1861 18.765 14.265 29.663 33.914 51.207 19.383 5.4826 23.72 6.2958 43.676 17.633 18.069 11.572 26.595 19.992 36.357 35.697 6.5413 11.252 20.818 43.791 21.866 45.293 16.264 6.585 33.276 14.545 49.954 19.046 34.131 9.2111 69.247 17.195 104.6 17.531 35.687 0.33992 58.529-6.2008 86.463-14.855 21.937-6.7967 50.184-22.233 62.604-28.77 8.017-22.322 11.441-33.997 21.984-48.141 12.839-17.223 29.974-31.584 48.537-42.396 14.925-8.6934 19.667-13.529 48.902-17.129 29.716-34.837 55.891-139.71 39.598-219.37-5.136-25.112-14.469-48.577-27.5-70.5 2.969-9.242 6.136-18.408 9.5-27.5 6.203-18.68 9.703-37.847 10.5-57.5 0.136-37.339-16.197-64.672-49-82-13.14-4.8956-26.133-7.6745-38.98-8.3359zm-108.34 409.36c27.614 0 50 22.386 50 50s-22.386 50-50 50-50-22.386-50-50 22.386-50 50-50z" fill="url(#a)"/>
  <path d="m324.5 564.5c-22.049-1.736-42.72-9.1402-60-21.5-7.1927-5.1447-12.559-12.846-16.538-20.744-5.1021-10.127-8.0992-21.551-8.7563-32.872-0.84451-14.549 2.5874-29.171 6.2904-43.267 5.7776-21.993 18.799-48.781 24.632-63.615 22.6-43.709 37.306-66.297 63.137-88.105 4.934-4.7394 5.3168-5.5172 11.957-11.58 4.917-3.9429 4.5574-5.644 8.1964-7.28-0.594-0.464 0.8206-0.16842 0.0816-0.0374 10.99-7.438 22.656-13.938 35-19.5 37.549-15.589 75.323-23.896 113.02-24.192 37.17-0.29197 75.698 9.6506 110.98 23.192 15.673 6.0149 30.023 15.358 43.532 25.324 14.598 10.77 28.755 22.658 40.03 36.87 5.6536 7.1259 12.042 16.456 13.439 23.75-30.871-2.0179-61.904-7.6677-89-5.9444-96.34 8.917-176.17 49.417-239.5 121.5-26.961 31.584-45.795 67.584-56.5 108z" fill="#7d7e80"/>
  <path d="m773.54 700.48a90 90 0 0 0-90 90 90 90 0 0 0 90 90 90 90 0 0 0 90-90 90 90 0 0 0-90-90zm-0.53906 33.875a56 56 0 0 1 56 56 56 56 0 0 1-56 56 56 56 0 0 1-56-56 56 56 0 0 1 56-56z" clip-rule="evenodd" fill="#353e42" fill-rule="evenodd" image-rendering="optimizeQuality" shape-rendering="geometricPrecision" stroke-width="1.094"/>
  <path d="m381.19 258.68c-9.5499 9.4167-32.675 29.42-45.411 41.552-26.302 26.818-26.288 28.094-41.057 51.798-11.205 18.464-15.956 22.079-31.354 54.714-11.843 29.199-21.247 58.216-23.45 74.435-3.5629-5.0963-0.42833-43.775 4.8032-64.79 3.86-15.505 11.745-29.797 19.282-43.886 6.7174-12.556 15.832-23.661 23-36 1.392-2.441 1.559-4.774 0.5-7 17.055-9.545 31.888-21.879 44.5-37 0.566-2.223 1.4-4.223 2.5-6 5.769-3.749 39.789-24.237 46.687-27.822z" fill="#9c9ea0"/>
  <path d="m769.5 418.5c0.997-0.03 1.664 0.47 2 1.5 28.251 81.612 20.827 159.69-23.5 233.5-5.0075 8.338-11.578 15.582-18.5 22.5-17.457 21.426-46.021 43.889-66.5 60.5-87.999 56.598-180.5 65.098-277.5 25.5-17.137-7.731-33.47-16.731-49-27-10.559-11.797-23.611-23.854-31.5-35.5-9.993-13.318-19.493-26.984-28.5-41l1-1c5.848 2.07 11.848 3.57 18 4.5 41.964 62.669 100.56 98.957 176 107 68.118 7.2625 130.51-9.025 187-47 12.651-7.8618 25.387-17.393 36.331-28.099 14.837-14.513 31.002-29.321 39.169-48.401 27.114-63.343 46.932-132.79 26.5-205 2.623-7.546 5.623-14.88 9-22z" fill="#7d7e80"/>
  <circle cx="753.4" cy="171.56" r="20" fill="#353e42" stroke-width=".97087"/>
  <circle cx="610.76" cy="664.06" r="32" fill="#353e42" stroke-width=".99704"/>
  <circle cx="242.86" cy="790.35" r="77" fill="#353e42" stroke-width="1.2146"/>
</svg>
