<?xml version="1.0" encoding="UTF-8"?>
<svg clip-rule="evenodd" fill-rule="evenodd" image-rendering="optimizeQuality" shape-rendering="geometricPrecision" text-rendering="geometricPrecision" version="1.1" viewBox="0 0 1024 1024" xml:space="preserve" xmlns="http://www.w3.org/2000/svg" xmlns:xlink="http://www.w3.org/1999/xlink"><defs><linearGradient id="c" x1="34.606" x2="432.05" y1="129.1" y2="443.87" gradientUnits="userSpaceOnUse"><stop stop-color="#202124" offset="0"/><stop stop-color="#fff" offset="1"/></linearGradient><linearGradient id="b" x1="830.79" x2="683.72" y1="823.05" y2="678.56" gradientUnits="userSpaceOnUse"><stop stop-color="#2b3037" offset="0"/><stop stop-color="#fff" stop-opacity=".97527" offset="1"/></linearGradient><radialGradient id="a" cx="12.705" cy="12.768" r="10.1" gradientTransform="matrix(1 0 0 1.1063 0 -1.3571)" gradientUnits="userSpaceOnUse"><stop stop-color="#60707b" offset="0"/><stop stop-color="#202124" offset="1"/></radialGradient></defs><g transform="matrix(43.377 0 0 45.824 -21.013 -69.858)" fill="url(#a)" fill-rule="evenodd" stroke="#e7e8e9" stroke-width=".17462"><path d="m22.077 6.2341-8.8386-4.4343a1.1052 1.1052 0 0 0-0.99216-0.00222l-8.8984 4.4343c-0.32924 0.16628-0.5565 0.48444-0.60306 0.85027-0.014411 0.10753-1.2693 10.799 9.4682 16.637a1.103 1.103 0 0 0 1.0742-0.01c10.317-5.8299 9.4383-16.155 9.3962-16.592a1.1086 1.1086 0 0 0-0.60638-0.88353z" fill="#2b3037" fill-rule="evenodd" stroke="#e7e8e9" stroke-width=".17462"/></g><path d="m607.4 499.86c0 46.108-37.377 83.485-83.483 83.485-46.108 0-83.485-37.377-83.485-83.485 0-46.106 37.377-83.484 83.485-83.484 46.106 0 83.483 37.377 83.483 83.484zm0 0v27.828c0 30.739 24.919 55.655 55.658 55.655 19.744 0 37.089-10.281 46.968-25.785 5.5019-8.6295 8.6878-18.878 8.6878-29.871v-27.828c0-57.692-25.081-109.53-64.932-145.2m-129.86-49.601c-107.58 0-194.8 87.213-194.8 194.8 0 107.58 87.213 194.8 194.8 194.8 41.388 0 79.76-12.906 111.31-34.916" clip-rule="evenodd" fill="none" image-rendering="optimizeQuality" shape-rendering="geometricPrecision" stroke="#fff" stroke-linecap="round" stroke-linejoin="round" stroke-width="27.724"/><path d="m78.456 382.53 43.561 43.561 184.88-120.03 120.03-184.88-43.561-43.561-120.84 120.84-145.12-131.91c2.2562-17.187-3.1571-35.183-16.359-48.389-22.554-22.554-59.119-22.554-81.673 0-22.554 22.554-22.554 59.119-3.7e-5 81.673 13.198 13.198 31.186 18.612 48.366 16.363l131.91 145.13z" clip-rule="evenodd" fill="url(#c)" fill-rule="evenodd" image-rendering="optimizeQuality" shape-rendering="geometricPrecision" stroke="#fff" stroke-width="4"/><path d="m877.25 685.11 13.239 29.028-170.87-23.129 206.05 92.514-13.216-29.028 103.97 10.928zm-175.59 16.715 193.56 264.65-3.7683-47.174 128.89 104.76-142.06-220.13 3.7669 47.174zm-13.673 23.129 25.433 226.26 17.854-29.229 47.448 99.642-6.685-172.42-17.855 29.206-66.196-153.45z" clip-rule="evenodd" fill="url(#b)" fill-rule="evenodd" image-rendering="optimizeQuality" shape-rendering="geometricPrecision"/></svg>
