<svg width="1024pt" height="1024pt" version="1.0" viewBox="0 0 1024 1024" xml:space="preserve" xmlns="http://www.w3.org/2000/svg"><defs><style>.i{fill:none;stroke:#000000;stroke-linecap:round;stroke-linejoin:round;}</style></defs><g transform="matrix(23.217 0 0 23.419 -45.207 -47.745)"><circle id="b" class="i" cx="24" cy="24" r="21.5" fill="#f8f8f8" stroke="#2a2f33"/></g><path transform="matrix(.1 0 0 -.1 0 1024)" d="m3061 4698.6c61.113-280.97 184.5-635.21 315-824.58 203-290 486-530 817-692 200-98 356-146 602-184 185-28 506-31 669-5 296 47 587 157 832 314 312 201 599 527 746 848 55.602 147.61 143.68 386.63 162.14 543.58-309.96-13.164-643.12-5.9058-921.58-1.715l-16.57-164.86c-136-338-464-617-823-701-224-52-392-50-625 8-463.4 185.47-743.01 456.98-903.86 873.58-297.38-13.613-585.76-19.376-853.14-14z" fill="#bbb6a5"/><path transform="matrix(.1 0 0 -.1 0 1024)" d="m4855 7244c-494-67-874-250-1224-589-269-260-444-556-540-912-41-153-85-319.56-67-396.71 382.58 9.6958 532.64 11.672 957 1.85 56.638 131.04 109.72 311.79 198 431.86 187 248 449 416 743 475 100 20 316 20 430 0 169-30 341-100 495-202 75-49 214-189 277-277 89.82-136.03 145.34-263.69 191-414 362.44-5.8262 724.89-14.374 934.43-8.72-33 319-138.43 650.72-301.43 919.72-60 99-261 340-358 429-186 171-392 304-622 402-181 77-285 105-493 135-166 25-461 27-620 5z" fill="#bbb6a5"/><path transform="matrix(.1 0 0 -.1 0 1024)" d="m5020 5983c-270-43-485-170-625-368-62-88-135-244-135-290 0-8 233-11 895-11 492 0 895 0 895 1s-9 30-21 66c-83 252-296 467-550 555-112 38-210 54-327 53-59-1-118-4-132-6z" fill="#2a2f33"/><path transform="matrix(.1 0 0 -.1 0 1024)" d="m4247 4703c-21-6-18-20 24-113 101-219 366-429 619-490 278-67 581-11 815 151 157 108 290 287 311 417l7 42-879-1c-484-1-887-3-897-6z" fill="#2a2f33"/><g transform="matrix(.1 0 0 -.1 0 1024)"><path d="m4955 8664c-664-45-1211-213-1718-528-221-137-579-432-618-507-37-74-18-165 40-189 44-18 99 12 191 106 184 186 550 441 807 561 251 117 574 224 793 262 165 29 423 59 580 66 341 17 864-61 1205-178 248-86 653-279 762-364 21-16 67-49 103-73 99-66 244-184 352-288 121-116 170-139 232-111 28 13 66 80 61 107-2 9-4 27-4 39-1 27-48 76-176 184-202 170-346 277-520 384-139 87-475 250-625 305-282 102-641 181-950 210-132 12-426 20-515 14z" fill="#2a2f33"/><path d="m4940 8170c-542-43-1e3 -177-1380-402-520-307-957-768-1189-1253-148-309-228-563-270-858-12-82-21-193-21-248v-99h93c144 0 133-11 140 148 17 374 145 772 367 1146 314 526 890 995 1450 1179 462 153 941 199 1402 138 601-81 1117-318 1550-714 515-471 819-1102 855-1774l6-123h114 113v88c0 115-24 312-55 459-111 520-336 938-749 1397-225 249-639 527-1032 691-210 88-572 181-821 210-160 19-435 26-573 15z" fill="#2a2f33"/><path d="m4885 7653c-250-20-571-96-796-188-430-176-839-514-1105-915-146-219-275-505-334-738-35-140-70-359-70-445v-58l114 2 114 1 7 82c25 314 118 622 262 871 114 195 209 326 339 463 283 301 684 534 1093 636 131 33 208 44 412 57 346 23 696-7 933-81 383-118 802-382 1037-653 341-393 500-754 552-1254l12-118 108-3 107-3v63c0 253-94 627-222 886-238 484-642 896-1104 1126-296 148-543 222-864 261-103 13-477 18-595 8z" fill="#2a2f33"/><path d="m8244 6670c-33-13-64-59-64-95 0-18 25-99 56-181 90-237 142-454 199-831 16-106 155-134 209-42 22 38 23 81 2 239-38 280-134 627-237 854-23 50-109 79-165 56z" fill="#2a2f33"/><path d="m1905 6652c-16-11-35-25-42-33-6-8-40-97-76-199-102-290-158-543-174-776l-6-91 35-38c30-33 41-38 80-39 49-1 79 17 103 64 7 14 20 83 29 153 34 260 77 431 178 705 67 180 69 214 21 252-33 26-107 27-148 2z" fill="#2a2f33"/><path d="m1105 5158c-21-19-29-35-32-74-4-41 0-56 23-91 17-26 42-48 64-57 70-27 1767-39 4685-32 1463 4 2802 10 2975 14 350 8 352 8 384 75 31 66 14 122-49 166l-33 23-724-12c-722-12-6209-7-6944 6l-321 6-28-24z" fill="#ac9d93"/><path d="m2592.3 4717.7c7.715-153.44 59.715-341.72 92.715-437.72 51-146 177-403 265-540 137-214 349-459 510-589 208-168 465-319 708-417 284-115 731-193 1032-180 152 6 406 42 550 77 363 90 735 272 1020 499 86 69 274 254 364 360 138 160 291 414 376 621 88 214 177.43 563.58 156.43 584.58-118.57-2.2277-116.66-8.9735-216.28-5.715l-37.145-151.86c-38-187-160-487-272-668-169-272-490-582-769-742-617-355-1236-437-1915-253-238 65-425 152-646 302-351 238-601 518-783 878-95 187-188 554.01-188 630.01-20.122 56.568-90.816 34.066-247.72 32.715z" fill="#2a2f33"/><path d="m2183 4599c-46-13-73-53-73-107 0-49 71-335 97-389 14-30 80-73 112-73 46 0 111 72 111 123 0 14-13 63-30 109-16 46-39 126-50 178-29 134-36 148-79 160-41 11-45 11-88-1z" fill="#2a2f33"/><path d="m7932 4510c-36-264-198-670-372-930-283-422-705-791-1145-1001-274-130-594-223-930-271-139-20-579-17-745 5-509 67-916 230-1315 527-328 243-557 497-765 847-49 83-93 159-97 168-5 14-15 16-55 11-90-12-128-46-128-115 0-100 297-527 538-775 357-366 826-648 1308-787 293-84 509-118 820-126 528-14 1041 101 1518 341 469 235 865 581 1155 1010 77 114 182 295 227 393 116 252 226 623 210 709-4 17-18 44-33 58-23 23-33 26-102 26h-77l-12-90z" fill="#2a2f33"/><path d="m1689 4527c-39-26-68-78-68-122-1-40 60-297 98-413 60-183 206-486 322-665 30-46 97-81 137-72 37 8 80 52 88 91 4 24-6 51-50 134-186 347-296 625-346 875-12 61-28 125-36 143-22 54-88 68-145 29z" fill="#2a2f33"/><path d="m8473 4451c-36-23-34-18-83-216-49-197-120-384-241-635-104-216-115-256-83-305 22-34 75-50 119-35 54 18 93 73 186 265 128 264 204 470 264 716 33 138 32 154-9 195-28 28-41 34-77 34-26 0-57-8-76-19z" fill="#2a2f33"/><path d="m7593 2789c-18-5-76-50-130-100-284-265-582-457-943-609-174-73-266-104-484-160-103-27-197-57-207-66-22-20-34-73-25-111 4-14 23-42 42-61 33-33 37-35 92-29 31 3 125 26 207 52 576 179 1020 415 1395 741 174 151 219 211 205 274-13 58-83 90-152 69z" fill="#2a2f33"/><path d="m2654 2766c-60-27-71-117-23-190 32-48 168-175 307-287 277-224 726-451 1138-577 210-65 248-66 302-11 37 38 46 71 32 115-15 45-52 63-205 103-225 58-513 173-709 282-259 145-490 317-641 477-59 63-118 102-152 102-10-1-32-7-49-14z" fill="#2a2f33"/></g></svg>
