<svg width="1168" xmlns="http://www.w3.org/2000/svg" height="1168" id="screenshot-c452dc37-350c-8067-8004-75afbdb468a6" viewBox="-54 -54 1168 1168" xmlns:xlink="http://www.w3.org/1999/xlink" fill="none" version="1.1"><g width="1024pt" xml:space="preserve" height="1024pt" id="shape-c452dc37-350c-8067-8004-75afbdb468a6" style="fill: rgb(0, 0, 0);" ry="0" rx="0" filter="url(#filter-render-1)" version="1.0"><defs><filter id="filter-render-1" x="-0.0439453125" y="-0.0439453125" width="1.10546875" height="1.10546875" filterUnits="objectBoundingBox" color-interpolation-filters="sRGB"><feFlood flood-opacity="0" result="BackgroundImageFix"/><feColorMatrix in="SourceAlpha" type="matrix" values="0 0 0 0 0 0 0 0 0 0 0 0 0 0 0 0 0 0 127 0"/><feOffset dx="6" dy="6"/><feGaussianBlur stdDeviation="5"/><feColorMatrix type="matrix" values="0 0 0 0 0 0 0 0 0 0 0 0 0 0 0 0 0 0 0.2 0"/><feBlend mode="normal" in2="BackgroundImageFix" result="filter_c452dc37-350c-8067-8004-75b09b31c390"/><feBlend mode="normal" in="SourceGraphic" in2="filter_c452dc37-350c-8067-8004-75b09b31c390" result="shape"/></filter><filter id="filter-shadow-render-1" x="-0.0439453125" y="-0.0439453125" width="1.10546875" height="1.10546875" filterUnits="objectBoundingBox" color-interpolation-filters="sRGB"><feFlood flood-opacity="0" result="BackgroundImageFix"/><feColorMatrix in="SourceAlpha" type="matrix" values="0 0 0 0 0 0 0 0 0 0 0 0 0 0 0 0 0 0 127 0"/><feOffset dx="6" dy="6"/><feGaussianBlur stdDeviation="5"/><feColorMatrix type="matrix" values="0 0 0 0 0 0 0 0 0 0 0 0 0 0 0 0 0 0 0.2 0"/><feBlend mode="normal" in2="BackgroundImageFix" result="filter_c452dc37-350c-8067-8004-75b09b31c390"/><feBlend mode="normal" in="SourceGraphic" in2="filter_c452dc37-350c-8067-8004-75b09b31c390" result="shape"/></filter></defs><g id="shape-c452dc37-350c-8067-8004-75afbdb4bfa8"><defs style="fill: rgb(0, 0, 0);"><g id="shape-c452dc37-350c-8067-8004-75afbdb4bfa9"><style style="fill: rgb(0, 0, 0);">.i{fill:none;stroke:#000000;stroke-linecap:round;stroke-linejoin:round;}</style></g></defs></g><g id="shape-c452dc37-350c-8067-8004-75afbdb4e79c" rx="0" ry="0" style="fill: rgb(0, 0, 0);"><g id="shape-c452dc37-350c-8067-8004-75afbdb4e79d"><g class="fills" id="fills-c452dc37-350c-8067-8004-75afbdb4e79d"><ellipse cx="512.001" cy="514.311" rx="499.16550000000007" ry="503.5085" transform="matrix(1.000000, 0.000000, 0.000000, 1.000000, 0.000000, 0.000000)" class="i" style="fill: rgb(248, 244, 240);"/></g><g class="strokes" id="strokes-c452dc37-350c-8067-8004-75afbdb4e79d"><g class="inner-stroke-shape" transform="matrix(1.000000, 0.000000, 0.000000, 1.000000, 0.000000, 0.000000)"><defs><clipPath id="inner-stroke-render-5-c452dc37-350c-8067-8004-75afbdb4e79d-0"><use href="#stroke-shape-render-5-c452dc37-350c-8067-8004-75afbdb4e79d-0"/></clipPath><ellipse cx="512.001" cy="514.311" rx="499.16550000000007" ry="503.5085" id="stroke-shape-render-5-c452dc37-350c-8067-8004-75afbdb4e79d-0" style="fill: none; stroke-width: 4; stroke: rgb(87, 99, 109); stroke-opacity: 1;"/></defs><use href="#stroke-shape-render-5-c452dc37-350c-8067-8004-75afbdb4e79d-0" clip-path="url('#inner-stroke-render-5-c452dc37-350c-8067-8004-75afbdb4e79d-0')"/></g></g></g></g><g id="shape-c452dc37-350c-8067-8004-75afbdb594a9"><defs><filter id="filter-render-6" x="-0.065167807103291" y="-0.15540052133112642" width="1.1592990840302668" height="1.414401390216337" filterUnits="objectBoundingBox" color-interpolation-filters="sRGB"><feFlood flood-opacity="0" result="BackgroundImageFix"/><feColorMatrix in="SourceAlpha" type="matrix" values="0 0 0 0 0 0 0 0 0 0 0 0 0 0 0 0 0 0 127 0"/><feOffset dx="4" dy="6"/><feGaussianBlur stdDeviation="2"/><feColorMatrix type="matrix" values="0 0 0 0 0 0 0 0 0 0 0 0 0 0 0 0 0 0 0.2 0"/><feBlend mode="normal" in2="BackgroundImageFix" result="filter_c452dc37-350c-8067-8004-75bf32b92e74"/><feBlend mode="normal" in="SourceGraphic" in2="filter_c452dc37-350c-8067-8004-75bf32b92e74" result="shape"/></filter><filter id="filter-shadow-render-6" x="-0.065167807103291" y="-0.15540052133112642" width="1.1592990840302668" height="1.414401390216337" filterUnits="objectBoundingBox" color-interpolation-filters="sRGB"><feFlood flood-opacity="0" result="BackgroundImageFix"/><feColorMatrix in="SourceAlpha" type="matrix" values="0 0 0 0 0 0 0 0 0 0 0 0 0 0 0 0 0 0 127 0"/><feOffset dx="4" dy="6"/><feGaussianBlur stdDeviation="2"/><feColorMatrix type="matrix" values="0 0 0 0 0 0 0 0 0 0 0 0 0 0 0 0 0 0 0.2 0"/><feBlend mode="normal" in2="BackgroundImageFix" result="filter_c452dc37-350c-8067-8004-75bf32b92e74"/><feBlend mode="normal" in="SourceGraphic" in2="filter_c452dc37-350c-8067-8004-75bf32b92e74" result="shape"/></filter></defs><g class="fills" id="fills-c452dc37-350c-8067-8004-75afbdb594a9"><path d="M306.100,554.140C312.211,582.237,324.550,617.661,337.600,636.598C357.900,665.598,386.200,689.598,419.300,705.798C439.300,715.598,454.900,720.398,479.500,724.198C498.000,726.998,530.100,727.298,546.400,724.698C576.000,719.998,605.100,708.998,629.600,693.298C660.800,673.198,689.500,640.598,704.200,608.498C709.760,593.737,718.568,569.835,720.414,554.140C689.418,555.456,656.102,554.731,628.256,554.311L626.599,570.797C612.999,604.597,580.199,632.497,544.299,640.897C521.899,646.097,505.099,645.897,481.799,640.097C435.459,621.550,407.498,594.399,391.413,552.739C361.675,554.101,332.837,554.677,306.100,554.140ZZ" filter="url(#filter-render-6)" style="fill: rgb(163, 166, 151);"/></g><g id="strokes-c452dc37-350c-8067-8004-75afbdb594a9" class="strokes"><g class="inner-stroke-shape"><defs><clipPath id="inner-stroke-render-6-c452dc37-350c-8067-8004-75afbdb594a9-0"><use href="#stroke-shape-render-6-c452dc37-350c-8067-8004-75afbdb594a9-0"/></clipPath><path d="M306.100,554.140C312.211,582.237,324.550,617.661,337.600,636.598C357.900,665.598,386.200,689.598,419.300,705.798C439.300,715.598,454.900,720.398,479.500,724.198C498.000,726.998,530.100,727.298,546.400,724.698C576.000,719.998,605.100,708.998,629.600,693.298C660.800,673.198,689.500,640.598,704.200,608.498C709.760,593.737,718.568,569.835,720.414,554.140C689.418,555.456,656.102,554.731,628.256,554.311L626.599,570.797C612.999,604.597,580.199,632.497,544.299,640.897C521.899,646.097,505.099,645.897,481.799,640.097C435.459,621.550,407.498,594.399,391.413,552.739C361.675,554.101,332.837,554.677,306.100,554.140ZZ" id="stroke-shape-render-6-c452dc37-350c-8067-8004-75afbdb594a9-0" style="fill: none; stroke-width: 4; stroke: rgb(1, 28, 38); stroke-opacity: 1;"/></defs><use href="#stroke-shape-render-6-c452dc37-350c-8067-8004-75afbdb594a9-0" clip-path="url('#inner-stroke-render-6-c452dc37-350c-8067-8004-75afbdb594a9-0')"/></g></g></g><g id="shape-c452dc37-350c-8067-8004-75afbdb5e852"><defs><filter id="filter-render-7" x="-0.06383619967974204" y="-0.14114453776737187" width="1.1560440436615917" height="1.376385434046325" filterUnits="objectBoundingBox" color-interpolation-filters="sRGB"><feFlood flood-opacity="0" result="BackgroundImageFix"/><feColorMatrix in="SourceAlpha" type="matrix" values="0 0 0 0 0 0 0 0 0 0 0 0 0 0 0 0 0 0 127 0"/><feOffset dx="4" dy="6"/><feGaussianBlur stdDeviation="2"/><feColorMatrix type="matrix" values="0 0 0 0 0 0 0 0 0 0 0 0 0 0 0 0 0 0 0.2 0"/><feBlend mode="normal" in2="BackgroundImageFix" result="filter_c452dc37-350c-8067-8004-75bf2f39dd64"/><feBlend mode="normal" in="SourceGraphic" in2="filter_c452dc37-350c-8067-8004-75bf2f39dd64" result="shape"/></filter><filter id="filter-shadow-render-7" x="-0.06383619967974204" y="-0.14114453776737187" width="1.1560440436615917" height="1.376385434046325" filterUnits="objectBoundingBox" color-interpolation-filters="sRGB"><feFlood flood-opacity="0" result="BackgroundImageFix"/><feColorMatrix in="SourceAlpha" type="matrix" values="0 0 0 0 0 0 0 0 0 0 0 0 0 0 0 0 0 0 127 0"/><feOffset dx="4" dy="6"/><feGaussianBlur stdDeviation="2"/><feColorMatrix type="matrix" values="0 0 0 0 0 0 0 0 0 0 0 0 0 0 0 0 0 0 0.2 0"/><feBlend mode="normal" in2="BackgroundImageFix" result="filter_c452dc37-350c-8067-8004-75bf2f39dd64"/><feBlend mode="normal" in="SourceGraphic" in2="filter_c452dc37-350c-8067-8004-75bf2f39dd64" result="shape"/></filter></defs><g class="fills" id="fills-c452dc37-350c-8067-8004-75afbdb5e852"><path d="M485.500,299.600C436.100,306.300,398.100,324.600,363.100,358.500C336.200,384.500,318.700,414.100,309.100,449.700C305.000,465.000,300.600,481.656,302.400,489.371C340.658,488.401,355.664,488.204,398.100,489.186C403.764,476.082,409.072,458.007,417.900,446.000C436.600,421.200,462.800,404.400,492.200,398.500C502.200,396.500,523.800,396.500,535.200,398.500C552.100,401.500,569.300,408.500,584.700,418.700C592.200,423.600,606.100,437.600,612.400,446.400C621.382,460.003,626.934,472.769,631.500,487.800C667.744,488.383,703.989,489.237,724.943,488.672C721.643,456.772,711.100,423.600,694.800,396.700C688.800,386.800,668.700,362.700,659.000,353.800C640.400,336.700,619.800,323.400,596.800,313.600C578.700,305.900,568.300,303.100,547.500,300.100C530.900,297.600,501.400,297.400,485.500,299.600ZZ" filter="url(#filter-render-7)" style="fill: rgb(163, 166, 151);"/></g><g id="strokes-c452dc37-350c-8067-8004-75afbdb5e852" class="strokes"><g class="inner-stroke-shape"><defs><clipPath id="inner-stroke-render-7-c452dc37-350c-8067-8004-75afbdb5e852-0"><use href="#stroke-shape-render-7-c452dc37-350c-8067-8004-75afbdb5e852-0"/></clipPath><path d="M485.500,299.600C436.100,306.300,398.100,324.600,363.100,358.500C336.200,384.500,318.700,414.100,309.100,449.700C305.000,465.000,300.600,481.656,302.400,489.371C340.658,488.401,355.664,488.204,398.100,489.186C403.764,476.082,409.072,458.007,417.900,446.000C436.600,421.200,462.800,404.400,492.200,398.500C502.200,396.500,523.800,396.500,535.200,398.500C552.100,401.500,569.300,408.500,584.700,418.700C592.200,423.600,606.100,437.600,612.400,446.400C621.382,460.003,626.934,472.769,631.500,487.800C667.744,488.383,703.989,489.237,724.943,488.672C721.643,456.772,711.100,423.600,694.800,396.700C688.800,386.800,668.700,362.700,659.000,353.800C640.400,336.700,619.800,323.400,596.800,313.600C578.700,305.900,568.300,303.100,547.500,300.100C530.900,297.600,501.400,297.400,485.500,299.600ZZ" id="stroke-shape-render-7-c452dc37-350c-8067-8004-75afbdb5e852-0" style="fill: none; stroke-width: 4; stroke: rgb(1, 28, 38); stroke-opacity: 1;"/></defs><use href="#stroke-shape-render-7-c452dc37-350c-8067-8004-75afbdb5e852-0" clip-path="url('#inner-stroke-render-7-c452dc37-350c-8067-8004-75afbdb5e852-0')"/></g></g></g><g id="shape-c452dc37-350c-8067-8004-75afbdb5e853"><g class="fills" id="fills-c452dc37-350c-8067-8004-75afbdb5e853"><path d="M502.000,425.700C475.000,430.000,453.500,442.700,439.500,462.500C433.300,471.300,426.000,486.900,426.000,491.500C426.000,492.300,449.300,492.600,515.500,492.600C564.700,492.600,605.000,492.600,605.000,492.500C605.000,492.400,604.100,489.500,602.900,485.900C594.600,460.700,573.300,439.200,547.900,430.400C536.700,426.600,526.900,425.000,515.200,425.100C509.300,425.200,503.400,425.500,502.000,425.700ZZ" style="fill: rgb(13, 13, 13);"/></g></g><g id="shape-c452dc37-350c-8067-8004-75afbdb6016c"><g class="fills" id="fills-c452dc37-350c-8067-8004-75afbdb6016c"><path d="M424.700,553.700C422.600,554.300,422.900,555.700,427.100,565.000C437.200,586.900,463.700,607.900,489.000,614.000C516.800,620.700,547.100,615.100,570.500,598.900C586.200,588.100,599.500,570.200,601.600,557.200L602.300,553.000L514.400,553.100C466.000,553.200,425.700,553.400,424.700,553.700ZZ" style="fill: rgb(13, 13, 13);"/></g></g><g id="shape-c452dc37-350c-8067-8004-75afbdb6016d" rx="0" ry="0" style="fill: rgb(0, 0, 0);"><g id="shape-c452dc37-350c-8067-8004-75afbdb67a5a"><g class="fills" id="fills-c452dc37-350c-8067-8004-75afbdb67a5a"><path d="M495.500,157.600C429.100,162.100,374.400,178.900,323.700,210.400C301.600,224.100,265.800,253.600,261.900,261.100C258.200,268.500,260.100,277.600,265.900,280.000C270.300,281.800,275.800,278.800,285.000,269.400C303.400,250.800,340.000,225.300,365.700,213.300C390.800,201.600,423.100,190.900,445.000,187.100C461.500,184.200,487.300,181.200,503.000,180.500C537.100,178.800,589.400,186.600,623.500,198.300C648.300,206.900,688.800,226.200,699.700,234.700C701.800,236.300,706.400,239.600,710.000,242.000C719.900,248.600,734.400,260.400,745.200,270.800C757.300,282.400,762.200,284.700,768.400,281.900C771.200,280.600,775.000,273.900,774.500,271.200C774.300,270.300,774.100,268.500,774.100,267.300C774.000,264.600,769.300,259.700,756.500,248.900C736.300,231.900,721.900,221.200,704.500,210.500C690.600,201.800,657.000,185.500,642.000,180.000C613.800,169.800,577.900,161.900,547.000,159.000C533.800,157.800,504.400,157.000,495.500,157.600ZZ" style="fill: rgb(42, 47, 51); fill-opacity: 1;"/></g></g><g id="shape-c452dc37-350c-8067-8004-75afbdb683f5"><g class="fills" id="fills-c452dc37-350c-8067-8004-75afbdb683f5"><path d="M494.000,207.000C439.800,211.300,394.000,224.700,356.000,247.200C304.000,277.900,260.300,324.000,237.100,372.500C222.300,403.400,214.300,428.800,210.100,458.300C208.900,466.500,208.000,477.600,208.000,483.100L208.000,493.000L217.300,493.000C231.700,493.000,230.600,494.100,231.300,478.200C233.000,440.800,245.800,401.000,268.000,363.600C299.400,311.000,357.000,264.100,413.000,245.700C459.200,230.400,507.100,225.800,553.200,231.900C613.300,240.000,664.900,263.700,708.200,303.300C759.700,350.400,790.100,413.500,793.700,480.700L794.300,493.000L805.700,493.000L817.000,493.000L817.000,484.200C817.000,472.700,814.600,453.000,811.500,438.300C800.400,386.300,777.900,344.500,736.600,298.600C714.100,273.700,672.700,245.900,633.400,229.500C612.400,220.700,576.200,211.400,551.300,208.500C535.300,206.600,507.800,205.900,494.000,207.000ZZ" style="fill: rgb(42, 47, 51);"/></g></g><g id="shape-c452dc37-350c-8067-8004-75afbdb7005d"><g class="fills" id="fills-c452dc37-350c-8067-8004-75afbdb7005d"><path d="M488.500,258.700C463.500,260.700,431.400,268.300,408.900,277.500C365.900,295.100,325.000,328.900,298.400,369.000C283.800,390.900,270.900,419.500,265.000,442.800C261.500,456.800,258.000,478.700,258.000,487.300L258.000,493.100L269.400,492.900L280.800,492.800L281.500,484.600C284.000,453.200,293.300,422.400,307.700,397.500C319.100,378.000,328.600,364.900,341.600,351.200C369.900,321.100,410.000,297.800,450.900,287.600C464.000,284.300,471.700,283.200,492.100,281.900C526.700,279.600,561.700,282.600,585.400,290.000C623.700,301.800,665.600,328.200,689.100,355.300C723.200,394.600,739.100,430.700,744.300,480.700L745.500,492.500L756.300,492.800L767.000,493.100L767.000,486.800C767.000,461.500,757.600,424.100,744.800,398.200C721.000,349.800,680.600,308.600,634.400,285.600C604.800,270.800,580.100,263.400,548.000,259.500C537.700,258.200,500.300,257.700,488.500,258.700ZZ" style="fill: rgb(42, 47, 51);"/></g></g><g id="shape-c452dc37-350c-8067-8004-75afbdb7005e"><g class="fills" id="fills-c452dc37-350c-8067-8004-75afbdb7005e"><path d="M824.400,357.000C821.100,358.300,818.000,362.900,818.000,366.500C818.000,368.300,820.500,376.400,823.600,384.600C832.600,408.300,837.800,430.000,843.500,467.700C845.100,478.300,859.000,481.100,864.400,471.900C866.600,468.100,866.700,463.800,864.600,448.000C860.800,420.000,851.200,385.300,840.900,362.600C838.600,357.600,830.000,354.700,824.400,357.000ZZ" style="fill: rgb(42, 47, 51);"/></g></g><g id="shape-c452dc37-350c-8067-8004-75afbdb7005f"><g class="fills" id="fills-c452dc37-350c-8067-8004-75afbdb7005f"><path d="M190.500,358.800C188.900,359.900,187.000,361.300,186.300,362.100C185.700,362.900,182.300,371.800,178.700,382.000C168.500,411.000,162.900,436.300,161.300,459.600L160.700,468.700L164.200,472.500C167.200,475.800,168.300,476.300,172.200,476.400C177.100,476.500,180.100,474.700,182.500,470.000C183.200,468.600,184.500,461.700,185.400,454.700C188.800,428.700,193.100,411.600,203.200,384.200C209.900,366.200,210.100,362.800,205.300,359.000C202.000,356.400,194.600,356.300,190.500,358.800ZZ" style="fill: rgb(42, 47, 51);"/></g></g><g id="shape-c452dc37-350c-8067-8004-75afbdb70060"><defs><filter id="filter-render-16" x="-0.033139222879828636" y="-0.9644235890708067" width="1.0810069892618033" height="3.5717962375221513" filterUnits="objectBoundingBox" color-interpolation-filters="sRGB"><feFlood flood-opacity="0" result="BackgroundImageFix"/><feColorMatrix in="SourceAlpha" type="matrix" values="0 0 0 0 0 0 0 0 0 0 0 0 0 0 0 0 0 0 127 0"/><feOffset dx="4" dy="6"/><feGaussianBlur stdDeviation="2"/><feColorMatrix type="matrix" values="0 0 0 0 0 0 0 0 0 0 0 0 0 0 0 0 0 0 0.2 0"/><feBlend mode="normal" in2="BackgroundImageFix" result="filter_c452dc37-350c-8067-8004-75bbec857efb"/><feBlend mode="normal" in="SourceGraphic" in2="filter_c452dc37-350c-8067-8004-75bbec857efb" result="shape"/></filter><filter id="filter-shadow-render-16" x="-0.033139222879828636" y="-0.9644235890708067" width="1.0810069892618033" height="3.5717962375221513" filterUnits="objectBoundingBox" color-interpolation-filters="sRGB"><feFlood flood-opacity="0" result="BackgroundImageFix"/><feColorMatrix in="SourceAlpha" type="matrix" values="0 0 0 0 0 0 0 0 0 0 0 0 0 0 0 0 0 0 127 0"/><feOffset dx="4" dy="6"/><feGaussianBlur stdDeviation="2"/><feColorMatrix type="matrix" values="0 0 0 0 0 0 0 0 0 0 0 0 0 0 0 0 0 0 0.2 0"/><feBlend mode="normal" in2="BackgroundImageFix" result="filter_c452dc37-350c-8067-8004-75bbec857efb"/><feBlend mode="normal" in="SourceGraphic" in2="filter_c452dc37-350c-8067-8004-75bbec857efb" result="shape"/></filter></defs><g class="fills" id="fills-c452dc37-350c-8067-8004-75afbdb70060"><path d="M110.500,508.200C108.400,510.100,107.600,511.700,107.300,515.600C106.900,519.700,107.300,521.200,109.600,524.700C111.300,527.300,113.800,529.500,116.000,530.400C123.000,533.100,292.700,534.300,584.500,533.600C730.800,533.200,864.700,532.600,882.000,532.200C917.000,531.400,917.200,531.400,920.400,524.700C923.500,518.100,921.800,512.500,915.500,508.100L912.200,505.800L839.800,507.000C767.600,508.200,218.900,507.700,145.400,506.400L113.300,505.800L110.500,508.200ZZ" filter="url(#filter-render-16)" style="fill: rgb(89, 10, 31);"/></g></g><g id="shape-c452dc37-350c-8067-8004-75afbdb7878b"><g class="fills" id="fills-c452dc37-350c-8067-8004-75afbdb7878b"><path d="M259.230,552.230C260.001,567.574,265.202,586.402,268.502,596.002C273.601,610.602,286.202,636.302,295.002,650.002C308.702,671.402,329.901,695.902,346.002,708.902C366.802,725.702,392.502,740.802,416.802,750.602C445.202,762.102,489.902,769.902,520.002,768.602C535.202,768.002,560.602,764.402,575.001,760.902C611.301,751.902,648.501,733.702,677.001,711.002C685.602,704.102,704.402,685.602,713.401,675.002C727.202,659.002,742.501,633.602,751.002,612.902C759.802,591.502,768.745,556.544,766.645,554.444C754.788,554.667,754.979,555.341,745.017,555.015L741.302,570.201C737.502,588.901,725.302,618.901,714.102,637.002C697.202,664.202,665.102,695.202,637.202,711.202C575.502,746.702,513.602,754.901,445.702,736.502C421.902,730.001,403.202,721.302,381.102,706.302C346.002,682.502,321.002,654.501,302.802,618.501C293.302,599.802,284.002,563.100,284.002,555.500C281.990,549.844,274.920,552.094,259.230,552.230ZZ" style="fill: rgb(42, 47, 51);"/></g></g><g id="shape-c452dc37-350c-8067-8004-75afbdb7878c"><g class="fills" id="fills-c452dc37-350c-8067-8004-75afbdb7878c"><path d="M218.300,564.100C213.700,565.400,211.000,569.400,211.000,574.800C211.000,579.700,218.100,608.300,220.700,613.700C222.100,616.700,228.700,621.000,231.900,621.000C236.500,621.000,243.000,613.800,243.000,608.700C243.000,607.300,241.700,602.400,240.000,597.800C238.400,593.200,236.100,585.200,235.000,580.000C232.100,566.600,231.400,565.200,227.100,564.000C223.000,562.900,222.600,562.900,218.300,564.100ZZ" style="fill: rgb(42, 47, 51);"/></g></g><g id="shape-c452dc37-350c-8067-8004-75afbdb7878d"><g class="fills" id="fills-c452dc37-350c-8067-8004-75afbdb7878d"><path d="M793.200,573.000C789.600,599.400,773.400,640.000,756.000,666.000C727.700,708.200,685.500,745.100,641.500,766.100C614.100,779.100,582.100,788.400,548.500,793.200C534.600,795.200,490.600,794.900,474.000,792.700C423.100,786.000,382.400,769.700,342.500,740.000C309.700,715.700,286.800,690.300,266.000,655.300C261.100,647.000,256.700,639.400,256.300,638.500C255.800,637.100,254.800,636.900,250.800,637.400C241.800,638.600,238.000,642.000,238.000,648.900C238.000,658.900,267.700,701.600,291.800,726.400C327.500,763.000,374.400,791.200,422.600,805.100C451.900,813.500,473.500,816.900,504.600,817.700C557.400,819.100,608.700,807.600,656.400,783.600C703.300,760.100,742.900,725.500,771.900,682.600C779.600,671.200,790.100,653.100,794.600,643.300C806.200,618.100,817.200,581.000,815.600,572.400C815.200,570.700,813.800,568.000,812.300,566.600C810.000,564.300,809.000,564.000,802.100,564.000L794.400,564.000L793.200,573.000ZZ" style="fill: rgb(42, 47, 51);"/></g></g><g id="shape-c452dc37-350c-8067-8004-75afbdb7878e"><g class="fills" id="fills-c452dc37-350c-8067-8004-75afbdb7878e"><path d="M168.900,571.300C165.000,573.900,162.100,579.100,162.100,583.500C162.000,587.500,168.100,613.200,171.900,624.800C177.900,643.100,192.500,673.400,204.100,691.300C207.100,695.900,213.800,699.400,217.800,698.500C221.500,697.700,225.800,693.300,226.600,689.400C227.000,687.000,226.000,684.300,221.600,676.000C203.000,641.300,192.000,613.500,187.000,588.500C185.800,582.400,184.200,576.000,183.400,574.200C181.200,568.800,174.600,567.400,168.900,571.300ZZ" style="fill: rgb(42, 47, 51);"/></g></g><g id="shape-c452dc37-350c-8067-8004-75afbdb7c4d1"><g class="fills" id="fills-c452dc37-350c-8067-8004-75afbdb7c4d1"><path d="M847.300,578.900C843.700,581.200,843.900,580.700,839.000,600.500C834.100,620.200,827.000,638.900,814.900,664.000C804.500,685.600,803.400,689.600,806.600,694.500C808.800,697.900,814.100,699.500,818.500,698.000C823.900,696.200,827.800,690.700,837.100,671.500C849.900,645.100,857.500,624.500,863.500,599.900C866.800,586.100,866.700,584.500,862.600,580.400C859.800,577.600,858.500,577.000,854.900,577.000C852.300,577.000,849.200,577.800,847.300,578.900ZZ" style="fill: rgb(42, 47, 51);"/></g></g><g id="shape-c452dc37-350c-8067-8004-75afbdb7c4d2"><g class="fills" id="fills-c452dc37-350c-8067-8004-75afbdb7c4d2"><path d="M759.300,745.100C757.500,745.600,751.700,750.100,746.300,755.100C717.900,781.600,688.100,800.800,652.000,816.000C634.600,823.300,625.400,826.400,603.600,832.000C593.300,834.700,583.900,837.700,582.900,838.600C580.700,840.600,579.500,845.900,580.400,849.700C580.800,851.100,582.700,853.900,584.600,855.800C587.900,859.100,588.300,859.300,593.800,858.700C596.900,858.400,606.300,856.100,614.500,853.500C672.100,835.600,716.500,812.000,754.000,779.400C771.400,764.300,775.900,758.300,774.500,752.000C773.200,746.200,766.200,743.000,759.300,745.100ZZ" style="fill: rgb(42, 47, 51);"/></g></g><g id="shape-c452dc37-350c-8067-8004-75afbdb7c4d3"><g class="fills" id="fills-c452dc37-350c-8067-8004-75afbdb7c4d3"><path d="M265.400,747.400C259.400,750.100,258.300,759.100,263.100,766.400C266.300,771.200,279.900,783.900,293.800,795.100C321.500,817.500,366.400,840.200,407.600,852.800C428.600,859.300,432.400,859.400,437.800,853.900C441.500,850.100,442.400,846.800,441.000,842.400C439.500,837.900,435.800,836.100,420.500,832.100C398.000,826.300,369.200,814.800,349.600,803.900C323.700,789.400,300.600,772.200,285.500,756.200C279.600,749.900,273.700,746.000,270.300,746.000C269.300,746.100,267.100,746.700,265.400,747.400ZZ" style="fill: rgb(42, 47, 51);"/></g></g></g></g></svg>